<mxfile host="app.diagrams.net" modified="2023-05-29T06:48:36.881Z" agent="Mozilla/5.0 (Macintosh; Intel Mac OS X 10_15_7) AppleWebKit/537.36 (KHTML, like Gecko) Chrome/113.0.0.0 Safari/537.36" etag="Vn89FnJ1DKIkd0GBWjPg" version="21.3.3" type="github">
  <diagram name="第 1 页" id="nMmoKu6g4ywg5d-ZwkJW">
    <mxGraphModel dx="157" dy="667" grid="1" gridSize="10" guides="1" tooltips="1" connect="1" arrows="1" fold="1" page="1" pageScale="1" pageWidth="827" pageHeight="1169" math="0" shadow="0">
      <root>
        <mxCell id="0" />
        <mxCell id="1" parent="0" />
        <mxCell id="cTPVE_IqI42gerdtQg24-1" value="" style="endArrow=classic;rounded=0;html=1;labelBorderColor=none;" edge="1" parent="1" source="cTPVE_IqI42gerdtQg24-10" target="cTPVE_IqI42gerdtQg24-13">
          <mxGeometry width="50" height="50" relative="1" as="geometry">
            <mxPoint x="656.5" y="332" as="sourcePoint" />
            <mxPoint x="557.5" y="332" as="targetPoint" />
          </mxGeometry>
        </mxCell>
        <mxCell id="cTPVE_IqI42gerdtQg24-2" value="" style="endArrow=classic;html=1;rounded=0;labelBorderColor=none;" edge="1" parent="1" source="cTPVE_IqI42gerdtQg24-10" target="cTPVE_IqI42gerdtQg24-12">
          <mxGeometry width="50" height="50" relative="1" as="geometry">
            <mxPoint x="1058.5" y="235" as="sourcePoint" />
            <mxPoint x="1108.5" y="185" as="targetPoint" />
          </mxGeometry>
        </mxCell>
        <mxCell id="cTPVE_IqI42gerdtQg24-3" value="" style="endArrow=classic;html=1;rounded=0;labelBorderColor=none;" edge="1" parent="1" source="cTPVE_IqI42gerdtQg24-17" target="cTPVE_IqI42gerdtQg24-18">
          <mxGeometry width="50" height="50" relative="1" as="geometry">
            <mxPoint x="1143" y="250" as="sourcePoint" />
            <mxPoint x="1193" y="200" as="targetPoint" />
          </mxGeometry>
        </mxCell>
        <mxCell id="cTPVE_IqI42gerdtQg24-4" value="flog core触发startTheWorld事件" style="edgeStyle=elbowEdgeStyle;elbow=vertical;endArrow=classic;html=1;rounded=0;labelBorderColor=none;" edge="1" parent="1" source="cTPVE_IqI42gerdtQg24-18">
          <mxGeometry width="50" height="50" relative="1" as="geometry">
            <mxPoint x="1114" y="221" as="sourcePoint" />
            <mxPoint x="1340" y="331" as="targetPoint" />
            <Array as="points">
              <mxPoint x="1530" y="331" />
            </Array>
          </mxGeometry>
        </mxCell>
        <mxCell id="cTPVE_IqI42gerdtQg24-5" value="" style="edgeStyle=orthogonalEdgeStyle;rounded=0;orthogonalLoop=1;jettySize=auto;html=1;" edge="1" parent="1" source="cTPVE_IqI42gerdtQg24-6" target="cTPVE_IqI42gerdtQg24-8">
          <mxGeometry relative="1" as="geometry" />
        </mxCell>
        <mxCell id="cTPVE_IqI42gerdtQg24-6" value="" style="ellipse;shape=startState;fillColor=#000000;strokeColor=#000000;" vertex="1" parent="1">
          <mxGeometry x="1114.5" y="86.00000000000001" width="30" height="30" as="geometry" />
        </mxCell>
        <mxCell id="cTPVE_IqI42gerdtQg24-7" value="" style="edgeStyle=orthogonalEdgeStyle;rounded=0;orthogonalLoop=1;jettySize=auto;html=1;" edge="1" parent="1" source="cTPVE_IqI42gerdtQg24-8" target="cTPVE_IqI42gerdtQg24-9">
          <mxGeometry relative="1" as="geometry" />
        </mxCell>
        <mxCell id="cTPVE_IqI42gerdtQg24-8" value="加载flog文件" style="rounded=1;whiteSpace=wrap;html=1;" vertex="1" parent="1">
          <mxGeometry x="1069.5" y="146" width="120" height="60" as="geometry" />
        </mxCell>
        <mxCell id="cTPVE_IqI42gerdtQg24-9" value="初始化配置文件" style="rounded=1;whiteSpace=wrap;html=1;" vertex="1" parent="1">
          <mxGeometry x="1069.5" y="236" width="120" height="60" as="geometry" />
        </mxCell>
        <mxCell id="cTPVE_IqI42gerdtQg24-10" value="flog core是否&lt;br&gt;加载完成" style="rhombus;whiteSpace=wrap;html=1;" vertex="1" parent="1">
          <mxGeometry x="1067" y="321" width="125" height="80" as="geometry" />
        </mxCell>
        <mxCell id="cTPVE_IqI42gerdtQg24-11" value="" style="edgeStyle=orthogonalEdgeStyle;rounded=0;orthogonalLoop=1;jettySize=auto;html=1;" edge="1" parent="1" source="cTPVE_IqI42gerdtQg24-12">
          <mxGeometry relative="1" as="geometry">
            <mxPoint x="1131.4705882352941" y="540.0204603580564" as="targetPoint" />
            <Array as="points">
              <mxPoint x="1132" y="524.02" />
              <mxPoint x="1132" y="524.02" />
            </Array>
          </mxGeometry>
        </mxCell>
        <mxCell id="cTPVE_IqI42gerdtQg24-12" value="初始化 flog core" style="rounded=1;whiteSpace=wrap;html=1;" vertex="1" parent="1">
          <mxGeometry x="1072" y="444" width="120" height="60" as="geometry" />
        </mxCell>
        <mxCell id="cTPVE_IqI42gerdtQg24-13" value="日志写入flog中间数组" style="rounded=1;whiteSpace=wrap;html=1;" vertex="1" parent="1">
          <mxGeometry x="880" y="331" width="120" height="60" as="geometry" />
        </mxCell>
        <mxCell id="cTPVE_IqI42gerdtQg24-14" value="" style="edgeStyle=orthogonalEdgeStyle;rounded=0;orthogonalLoop=1;jettySize=auto;html=1;" edge="1" parent="1" source="cTPVE_IqI42gerdtQg24-15" target="cTPVE_IqI42gerdtQg24-17">
          <mxGeometry relative="1" as="geometry">
            <Array as="points">
              <mxPoint x="1134" y="650" />
              <mxPoint x="1220" y="650" />
              <mxPoint x="1220" y="70" />
              <mxPoint x="1340" y="70" />
            </Array>
          </mxGeometry>
        </mxCell>
        <mxCell id="cTPVE_IqI42gerdtQg24-15" value="日志塞入flog core" style="rounded=1;whiteSpace=wrap;html=1;" vertex="1" parent="1">
          <mxGeometry x="1074" y="540.02" width="120" height="60" as="geometry" />
        </mxCell>
        <mxCell id="cTPVE_IqI42gerdtQg24-16" value="" style="edgeStyle=orthogonalEdgeStyle;rounded=0;orthogonalLoop=1;jettySize=auto;html=1;" edge="1" parent="1" source="cTPVE_IqI42gerdtQg24-17" target="cTPVE_IqI42gerdtQg24-20">
          <mxGeometry x="-0.0051" relative="1" as="geometry">
            <mxPoint as="offset" />
          </mxGeometry>
        </mxCell>
        <mxCell id="cTPVE_IqI42gerdtQg24-17" value="flog core是否&lt;br&gt;处于暂停状态" style="rhombus;whiteSpace=wrap;html=1;" vertex="1" parent="1">
          <mxGeometry x="1280.25" y="116" width="119.25" height="80" as="geometry" />
        </mxCell>
        <mxCell id="cTPVE_IqI42gerdtQg24-18" value="日志写入 flog 中间数组" style="rounded=1;whiteSpace=wrap;html=1;" vertex="1" parent="1">
          <mxGeometry x="1460" y="126" width="120" height="60" as="geometry" />
        </mxCell>
        <mxCell id="cTPVE_IqI42gerdtQg24-19" value="" style="edgeStyle=orthogonalEdgeStyle;rounded=0;orthogonalLoop=1;jettySize=auto;html=1;" edge="1" parent="1" source="cTPVE_IqI42gerdtQg24-20" target="cTPVE_IqI42gerdtQg24-22">
          <mxGeometry relative="1" as="geometry" />
        </mxCell>
        <mxCell id="cTPVE_IqI42gerdtQg24-20" value="日志塞入flog队列" style="rounded=1;whiteSpace=wrap;html=1;" vertex="1" parent="1">
          <mxGeometry x="1280.25" y="248" width="120" height="60" as="geometry" />
        </mxCell>
        <mxCell id="cTPVE_IqI42gerdtQg24-21" value="" style="edgeStyle=orthogonalEdgeStyle;rounded=0;orthogonalLoop=1;jettySize=auto;html=1;" edge="1" parent="1" source="cTPVE_IqI42gerdtQg24-22" target="cTPVE_IqI42gerdtQg24-24">
          <mxGeometry relative="1" as="geometry" />
        </mxCell>
        <mxCell id="cTPVE_IqI42gerdtQg24-22" value="日志塞入indexeddb" style="rounded=1;whiteSpace=wrap;html=1;" vertex="1" parent="1">
          <mxGeometry x="1279.5" y="351" width="120" height="60" as="geometry" />
        </mxCell>
        <mxCell id="cTPVE_IqI42gerdtQg24-23" value="" style="edgeStyle=orthogonalEdgeStyle;rounded=0;orthogonalLoop=1;jettySize=auto;html=1;" edge="1" parent="1" source="cTPVE_IqI42gerdtQg24-24" target="cTPVE_IqI42gerdtQg24-25">
          <mxGeometry relative="1" as="geometry" />
        </mxCell>
        <mxCell id="cTPVE_IqI42gerdtQg24-24" value="是否超出&lt;br&gt;条数限制" style="rhombus;whiteSpace=wrap;html=1;" vertex="1" parent="1">
          <mxGeometry x="1284.38" y="451" width="110.25" height="80" as="geometry" />
        </mxCell>
        <mxCell id="cTPVE_IqI42gerdtQg24-25" value="检查删除" style="rounded=1;whiteSpace=wrap;html=1;" vertex="1" parent="1">
          <mxGeometry x="1462.5" y="461" width="120" height="60" as="geometry" />
        </mxCell>
        <mxCell id="cTPVE_IqI42gerdtQg24-26" value="" style="ellipse;shape=endState;fillColor=#000000;strokeColor=#330000;" vertex="1" parent="1">
          <mxGeometry x="1322.5" y="606" width="30" height="30" as="geometry" />
        </mxCell>
        <mxCell id="cTPVE_IqI42gerdtQg24-27" value="结束" style="text;html=1;strokeColor=none;fillColor=none;align=center;verticalAlign=middle;whiteSpace=wrap;rounded=0;" vertex="1" parent="1">
          <mxGeometry x="1260" y="606" width="60" height="30" as="geometry" />
        </mxCell>
        <mxCell id="cTPVE_IqI42gerdtQg24-28" value="" style="endArrow=classic;html=1;rounded=0;" edge="1" parent="1" source="cTPVE_IqI42gerdtQg24-9" target="cTPVE_IqI42gerdtQg24-10">
          <mxGeometry width="50" height="50" relative="1" as="geometry">
            <mxPoint x="1100" y="156" as="sourcePoint" />
            <mxPoint x="1150" y="106.00000000000001" as="targetPoint" />
          </mxGeometry>
        </mxCell>
        <mxCell id="cTPVE_IqI42gerdtQg24-29" value="开始" style="text;html=1;strokeColor=none;fillColor=none;align=center;verticalAlign=middle;whiteSpace=wrap;rounded=0;" vertex="1" parent="1">
          <mxGeometry x="1144.5" y="86.00000000000001" width="60" height="30" as="geometry" />
        </mxCell>
        <mxCell id="cTPVE_IqI42gerdtQg24-30" value="" style="endArrow=classic;html=1;rounded=0;" edge="1" parent="1" source="cTPVE_IqI42gerdtQg24-24" target="cTPVE_IqI42gerdtQg24-26">
          <mxGeometry width="50" height="50" relative="1" as="geometry">
            <mxPoint x="1382.5" y="686" as="sourcePoint" />
            <mxPoint x="1432.5" y="636" as="targetPoint" />
          </mxGeometry>
        </mxCell>
        <mxCell id="cTPVE_IqI42gerdtQg24-31" value="" style="edgeStyle=segmentEdgeStyle;endArrow=classic;html=1;curved=0;rounded=0;endSize=8;startSize=8;" edge="1" parent="1" source="cTPVE_IqI42gerdtQg24-13" target="cTPVE_IqI42gerdtQg24-12">
          <mxGeometry width="50" height="50" relative="1" as="geometry">
            <mxPoint x="1147" y="516" as="sourcePoint" />
            <mxPoint x="1197" y="466" as="targetPoint" />
            <Array as="points">
              <mxPoint x="940" y="476" />
            </Array>
          </mxGeometry>
        </mxCell>
        <mxCell id="cTPVE_IqI42gerdtQg24-32" value="" style="edgeStyle=elbowEdgeStyle;elbow=horizontal;endArrow=classic;html=1;curved=0;rounded=0;endSize=8;startSize=8;exitX=0.5;exitY=1;exitDx=0;exitDy=0;entryX=1;entryY=0.5;entryDx=0;entryDy=0;" edge="1" parent="1" source="cTPVE_IqI42gerdtQg24-25" target="cTPVE_IqI42gerdtQg24-26">
          <mxGeometry width="50" height="50" relative="1" as="geometry">
            <mxPoint x="1192.5" y="725.98" as="sourcePoint" />
            <mxPoint x="1342.5" y="565.98" as="targetPoint" />
            <Array as="points">
              <mxPoint x="1532.5" y="535.98" />
            </Array>
          </mxGeometry>
        </mxCell>
        <mxCell id="cTPVE_IqI42gerdtQg24-33" value="否" style="text;html=1;strokeColor=none;fillColor=none;align=center;verticalAlign=middle;whiteSpace=wrap;rounded=0;" vertex="1" parent="1">
          <mxGeometry x="1004" y="337" width="60" height="30" as="geometry" />
        </mxCell>
        <mxCell id="cTPVE_IqI42gerdtQg24-34" value="是" style="text;html=1;strokeColor=none;fillColor=none;align=center;verticalAlign=middle;whiteSpace=wrap;rounded=0;" vertex="1" parent="1">
          <mxGeometry x="1109.5" y="402" width="60" height="30" as="geometry" />
        </mxCell>
        <mxCell id="cTPVE_IqI42gerdtQg24-35" value="是" style="text;html=1;strokeColor=none;fillColor=none;align=center;verticalAlign=middle;whiteSpace=wrap;rounded=0;" vertex="1" parent="1">
          <mxGeometry x="1396" y="133" width="60" height="30" as="geometry" />
        </mxCell>
        <mxCell id="cTPVE_IqI42gerdtQg24-36" value="否" style="text;html=1;strokeColor=none;fillColor=none;align=center;verticalAlign=middle;whiteSpace=wrap;rounded=0;" vertex="1" parent="1">
          <mxGeometry x="1318.5" y="205.98000000000002" width="60" height="30" as="geometry" />
        </mxCell>
        <mxCell id="cTPVE_IqI42gerdtQg24-37" value="否" style="text;html=1;strokeColor=none;fillColor=none;align=center;verticalAlign=middle;whiteSpace=wrap;rounded=0;" vertex="1" parent="1">
          <mxGeometry x="1317.5" y="548.98" width="60" height="30" as="geometry" />
        </mxCell>
        <mxCell id="cTPVE_IqI42gerdtQg24-38" value="是" style="text;html=1;strokeColor=none;fillColor=none;align=center;verticalAlign=middle;whiteSpace=wrap;rounded=0;" vertex="1" parent="1">
          <mxGeometry x="1391.5" y="468" width="60" height="30" as="geometry" />
        </mxCell>
      </root>
    </mxGraphModel>
  </diagram>
</mxfile>
